<svg width="68" height="70" viewBox="0 0 68 70" fill="none" xmlns="http://www.w3.org/2000/svg">
<path d="M3.72132 0.360538C3.28152 0.813082 3.28152 1.47449 3.73824 1.94444C4.21187 2.4318 5.02381 2.32736 5.46361 1.73557C6.25863 0.621621 4.6855 -0.631577 3.72132 0.360538Z" fill="black"/>
<path d="M34.4058 0.34309C33.7123 0.778228 33.2048 1.47445 32.9511 2.30991C32.7988 2.86689 32.8327 3.73717 33.2217 7.28789C33.4754 9.65505 33.763 13.432 33.8476 15.6948V15.6948C33.9579 18.3748 33.2833 21.0287 31.9064 23.3307L22.8356 38.496C16.6953 48.7827 11.5531 57.2069 11.4008 57.2418C11.0456 57.3288 8.93117 56.65 8.16997 56.1974C6.32619 55.1357 5.15903 53.2211 4.85455 50.8365C4.76997 50.1229 4.63465 49.357 4.55007 49.1308C4.21176 48.2431 2.87545 48.3649 2.55405 49.3048C2.31724 49.9836 2.31724 51.5675 2.53714 53.3951C3.29833 59.6437 6.34311 63.7688 11.164 65.0916C11.8575 65.2831 12.8894 65.4746 13.4476 65.5442C14.7162 65.7008 14.9869 65.8401 17.4058 67.7025C20.5521 70.1044 19.1142 69.8956 31.9192 69.9478L42.4119 69.9975C42.7456 69.999 43.0567 69.8291 43.2356 69.5475V69.5475C43.6416 68.9035 43.4725 67.3195 42.8297 65.8923C42.2376 64.6217 41.0028 63.2467 39.9371 62.6723V62.6723C39.5737 62.4897 39.4878 62.0091 39.7654 61.7118L40.4615 60.9665C41.4934 59.8526 42.5759 58.3383 43.5739 56.65C43.7093 56.4237 43.963 57.9032 44.6396 62.7767C45.1809 66.6755 45.6207 69.356 45.773 69.5997C46.0098 69.9826 46.0267 69.9826 50.8983 69.9826C56.7341 69.9826 56.3282 70.1566 56.3282 67.7025C56.3282 66.2578 56.2774 65.9445 55.8376 65.022C55.2625 63.7514 54.0953 62.6201 52.9282 62.2023C52.1332 61.9064 52.1162 61.889 52.0317 61.0187C51.9809 60.5488 51.7103 55.4142 51.4227 49.6181C51.1351 43.8221 50.763 37.5561 50.5769 35.6763C50.0864 30.8202 50.3232 29.9499 52.7929 27.2694L53.4549 26.5462C53.9061 26.0533 54.5435 25.7726 55.2118 25.7726V25.7726C57.7322 25.7552 59.9481 24.8327 61.6565 23.0747C62.8914 21.8041 63.4327 20.812 64.2953 18.1663C65.0396 15.8862 65.0904 15.3467 64.6337 14.9115C64.4645 14.7549 62.756 13.9716 60.8446 13.1884L60.072 12.8704C58.3057 12.1434 56.759 10.9693 55.5839 9.46358V9.46358C53.1481 6.348 51.6934 5.25145 48.9869 4.53782C47.8366 4.24193 47.1093 4.18971 43.8277 4.18971H42.2371C40.8304 4.18971 39.5043 3.53311 38.6516 2.41435V2.41435C37.9073 1.45704 37.0784 0.517145 36.7909 0.34309C36.1312 -0.074643 35.0655 -0.074643 34.4058 0.34309ZM37.2138 4.36377C38.0088 5.4081 38.77 6.31318 38.9053 6.40021C39.0406 6.46983 41.2565 6.57427 43.8108 6.62648C48.1411 6.71351 48.5302 6.74832 49.4267 7.11384C50.966 7.75784 52.0317 8.69774 54.1292 11.3434V11.3434C55.4042 12.9633 57.0778 14.2246 58.9864 15.0037L59.1869 15.0856C59.7807 15.3275 60.3397 15.559 60.8186 15.7595C61.8529 16.1925 62.2685 16.982 61.9103 18.0445V18.0445C61.2675 19.9069 60.4386 21.2297 59.3899 22.013C58.1043 22.9877 57.4446 23.1965 55.2625 23.3184V23.3184C53.9883 23.3968 52.7882 23.9437 51.893 24.8539L51.8625 24.8849V24.8849C51.0194 25.7419 49.7306 25.9807 48.6365 25.4824L43.5401 23.1617C39.7341 21.4212 36.554 19.9243 36.4695 19.8547C36.3849 19.7677 36.2496 17.9053 36.165 15.7296C36.0804 13.5539 35.8267 10.0206 35.6068 7.87968C34.9133 1.43964 34.9471 1.37002 37.2138 4.36377ZM42.4744 25.2852L47.9581 27.7849C48.5414 28.0508 48.8093 28.731 48.564 29.3233V29.3233C48.158 30.3154 48.1242 30.5591 48.1411 32.9088C48.1411 34.3013 48.1919 35.6589 48.2764 35.9374C48.3779 36.3725 48.361 36.4247 48.0904 36.3203C47.2446 35.9896 32.1391 27.7568 32.1391 27.6175C32.1391 27.5305 32.6128 26.6776 33.1879 25.7029C35.2854 22.187 35.37 22.0826 35.6575 22.2044C35.8098 22.2566 38.8884 23.6491 42.4744 25.2852ZM40.1401 34.7712C42.7744 36.1872 45.146 37.4857 46.6839 38.3421C47.8996 39.0191 48.5663 40.08 48.6563 41.4686C48.7975 43.6476 49.0106 47.317 49.2237 51.4283C49.562 57.9554 49.9003 63.4207 49.968 63.5774C50.1033 63.9081 50.2386 63.9603 51.4904 64.2388C52.9451 64.5695 53.8247 65.5268 54.0615 66.9888V66.9888C54.1234 67.3707 53.8262 67.7161 53.4394 67.712L50.8983 67.6851V67.6851C49.0192 67.655 47.4422 66.2604 47.1825 64.3991L46.162 57.0851C45.3501 51.2717 44.572 46.137 44.4197 45.6497C43.5909 43.1085 41.3242 40.8457 38.7531 40.0451C37.366 39.5925 34.3212 39.5577 32.968 39.9755C30.7013 40.6717 28.7222 42.3252 27.6565 44.4139C26.8277 46.05 26.7431 47.2858 27.4366 47.6861C27.7749 47.895 28.0118 47.9124 28.367 47.7731C28.756 47.6339 28.9421 47.3554 29.3312 46.3285C29.7033 45.3538 30.0754 44.7794 30.769 44.0484C32.3083 42.4471 34.0844 41.8205 36.5371 42.0293C39.4128 42.273 41.6625 44.1702 42.373 46.9203C42.6943 48.2431 42.7113 51.7938 42.3899 53.0644C41.6456 55.9189 39.4128 59.1738 36.6048 61.4713C35.6744 62.2371 35.5222 62.4286 35.5222 62.916C35.5222 63.6992 35.9282 64.0125 37.163 64.2214C38.7192 64.4824 39.6327 65.0568 40.4446 66.31C41.4257 67.8417 42.17 67.7199 31.6147 67.7199C25.1869 67.7199 22.0744 67.6503 21.5332 67.5284C21.0088 67.3892 20.0277 66.7626 18.4038 65.5268C16.0864 63.7514 15.0038 63.1944 13.8874 63.1944C12.2973 63.177 9.89535 62.2545 8.49137 61.1232C7.69634 60.4792 5.93714 58.0772 6.12321 57.8858C6.17395 57.8335 6.54609 57.9902 6.95206 58.2339C8.00082 58.8605 10.1322 59.5219 11.4685 59.6437C12.5172 59.7481 12.6356 59.7133 12.974 59.3478C13.16 59.1215 17.1859 52.4726 21.9053 44.5705C26.6247 36.6684 30.566 30.1065 30.6506 30.0021C30.7859 29.828 30.9381 29.8455 31.361 30.0543C31.6486 30.211 35.5899 32.3344 40.1401 34.7712Z" fill="black"/>
<path d="M50.0697 13.2058C49.1055 14.1979 49.6468 15.6774 50.9831 15.6774C51.7781 15.6774 52.5224 14.8071 52.3702 14.0412C52.2348 13.345 51.812 12.9273 51.1353 12.7881C50.6786 12.701 50.5095 12.7706 50.0697 13.2058Z" fill="black"/>
<path d="M10.6906 7.5489C10.3523 7.91442 10.3184 8.14069 10.3184 9.89865V9.89865C10.3184 10.973 9.4475 11.8481 8.37316 11.8481V11.8481C5.66669 11.8481 5.75127 11.7262 5.75127 15.364C5.75127 16.9305 5.81893 18.2881 5.88659 18.3925C6.17415 18.8451 6.83386 18.9843 8.5254 18.9843V18.9843C9.51566 18.9843 10.3184 19.7871 10.3184 20.7774V20.9512C10.3184 23.7709 10.2169 23.6838 13.7861 23.6838C17.3722 23.6838 17.2538 23.7883 17.2538 20.986V20.7774C17.2538 19.7871 18.0565 18.9843 19.0468 18.9843V18.9843C20.7383 18.9843 21.398 18.8451 21.6856 18.3925C21.7533 18.2881 21.8209 16.9305 21.8209 15.364C21.8209 11.7262 21.9055 11.8481 19.199 11.8481V11.8481C18.1247 11.8481 17.2538 10.9771 17.2538 9.90279V9.88124C17.2538 7.09636 17.3214 7.14857 13.7692 7.14857C11.1473 7.14857 11.0458 7.16598 10.6906 7.5489ZM14.8856 11.3259C14.8856 12.2658 14.9702 13.2405 15.0717 13.4842C15.3423 14.0934 16.0358 14.2848 17.9473 14.2848H18.4906C19.1154 14.2848 19.6219 14.7914 19.6219 15.4162V15.4162V15.4162C19.6219 16.041 19.1154 16.5476 18.4906 16.5476H17.6936C15.004 16.5476 14.9871 16.565 14.9194 19.228L14.888 20.1651C14.8678 20.7684 14.3729 21.247 13.7692 21.247V21.247V21.247C13.1713 21.247 12.6866 20.7624 12.6866 20.1645V19.3324C12.6866 17.5223 12.6697 17.383 12.2637 16.9827C11.8747 16.565 11.7562 16.5476 9.89555 16.5476H9.08163C8.4568 16.5476 7.95027 16.041 7.95027 15.4162V15.4162V15.4162C7.95027 14.7914 8.4568 14.2848 9.08163 14.2848H9.6249C11.5533 14.2848 12.3145 14.076 12.5344 13.4668C12.6189 13.2405 12.6866 12.2658 12.6866 11.3085V10.6848C12.6866 10.0776 13.1789 9.58535 13.7861 9.58535V9.58535V9.58535C14.3933 9.58535 14.8856 10.0776 14.8856 10.6848V11.3259Z" fill="black"/>
<path d="M3.26468 28.5748C2.35124 28.7489 1.72537 29.097 1.06567 29.8106C0.338308 30.5939 0 31.4816 0 32.6826C0 33.9183 0.456716 34.9627 1.37015 35.7459C3.95821 38.026 7.95025 36.1637 7.95025 32.6826C7.95025 31.4816 7.61194 30.5939 6.88458 29.8106C5.9204 28.7837 4.61791 28.3312 3.26468 28.5748ZM5.07463 31.2553C5.61592 31.7601 5.80199 32.4737 5.58209 33.1699C5.34527 33.9183 4.77015 34.3361 3.97512 34.3361C3.14627 34.3361 2.58806 33.9009 2.35124 33.1003C2.18209 32.5085 2.199 32.3344 2.48657 31.8297C2.65572 31.5164 2.99403 31.1509 3.23085 31.029C3.72139 30.7679 4.66866 30.8724 5.07463 31.2553Z" fill="black"/>
<path d="M60.3372 33.5703C60.1004 33.8314 60.0497 34.3013 60.0497 36.1811C60.0497 38.2524 60.0835 38.5135 60.388 38.8268C60.8278 39.2793 61.4029 39.2619 61.8765 38.8268C62.2149 38.4961 62.2487 38.3046 62.2487 36.2159C62.2487 34.1795 62.2149 33.9184 61.9104 33.6051C61.4875 33.17 60.6925 33.1526 60.3372 33.5703Z" fill="black"/>
<path d="M15.3253 34.7364C14.8855 35.2064 14.8347 35.7111 15.173 36.1985C16.1034 37.4865 17.8795 36.1811 16.983 34.8582C16.6785 34.4057 15.7312 34.3361 15.3253 34.7364Z" fill="black"/>
<path d="M54.7551 39.3664C53.977 39.8363 54.1293 41.1069 55.0089 41.4202C55.6855 41.6639 58.4935 41.6639 59.1532 41.4376C60.0158 41.1243 60.2019 40.2367 59.576 39.4708C59.3561 39.2271 59.0178 39.1749 57.191 39.1749C56.0069 39.1749 54.9243 39.2619 54.7551 39.3664Z" fill="black"/>
<path d="M62.6039 39.6274C62.1979 40.1496 62.1979 40.2192 62.4178 40.811C62.6377 41.4376 63.5511 41.6639 65.581 41.5768C67.5432 41.5072 67.9999 41.2809 67.9999 40.2888C67.9999 39.3315 67.5939 39.1749 65.1074 39.1749C62.976 39.1749 62.9422 39.1749 62.6039 39.6274Z" fill="black"/>
<path d="M60.3372 41.9249C59.9312 42.3774 59.9143 46.6766 60.3034 47.0769C60.7601 47.5295 61.2506 47.5817 61.7243 47.2162C62.1641 46.8855 62.1641 46.8333 62.2148 44.5705C62.2486 42.6037 62.2148 42.2034 61.978 41.9423C61.6059 41.5246 60.6924 41.5072 60.3372 41.9249Z" fill="black"/>
</svg>
