<svg width="68" height="70" viewBox="0 0 68 70" fill="none" xmlns="http://www.w3.org/2000/svg">
<path d="M42.0905 0.218964C41.3531 0.478983 40.2753 1.56012 40.0767 2.27175C39.4669 4.39296 40.5873 5.77517 43.693 6.76051V6.76051C44.1041 6.88746 44.3664 7.28929 44.3172 7.71671L44.3028 7.84164C43.849 11.4682 42.1898 14.6022 39.708 16.5455C39.2117 16.9423 38.7579 17.3803 38.7153 17.5308C38.4884 18.2014 39.2968 19.0088 39.9775 18.8035C40.5164 18.6393 42.1614 17.2571 42.9414 16.3128C44.7141 14.1779 45.806 11.6872 46.3024 8.7175C46.4017 8.14272 46.5151 7.66373 46.5718 7.66373C46.6144 7.66373 47.2525 7.85533 47.9616 8.08798V8.08798C48.7476 8.3408 49.2805 9.07203 49.2805 9.89765V11.304V13.2024C49.2805 13.6958 48.8805 14.0958 48.3871 14.0958V14.0958C47.6354 14.0958 47.4369 14.1505 47.1816 14.4106C46.8696 14.7253 46.8696 14.7527 46.8696 20.8152V26.4841C46.8696 26.7605 46.9885 27.0235 47.1958 27.2063V27.2063C47.6354 27.6031 48.2169 27.5894 48.6423 27.1652C48.9827 26.8368 48.9969 26.782 48.9969 24.7019V24.7019C48.9969 23.5303 49.9466 22.5806 51.1181 22.5806H53.8044H54.1364C56.6173 22.5806 58.6372 24.5751 58.6686 27.0557V27.0557C58.7253 31.216 58.7537 31.6266 59.0515 32.5709C59.5337 34.1036 60.3562 35.5269 61.5474 36.8133C63.6747 39.1398 64.1852 39.7693 64.5255 40.4673C65.0928 41.6031 65.3055 42.739 65.3055 44.6413V44.6413C65.3055 45.6087 64.5212 46.393 63.5538 46.393H63.1216H61.9792C61.3288 46.393 60.7125 46.1017 60.2995 45.5992V45.5992C58.3992 43.2454 55.18 42.0411 52.3295 42.6022C51.7055 42.7253 50.727 43.0538 50.1597 43.3275C49.082 43.8612 47.5787 45.0792 46.9973 45.9003V45.9003C46.7842 46.2088 46.4331 46.393 46.0581 46.393H44.4021H44.1477C43.0593 46.393 42.1925 45.482 42.2465 44.3949V44.3949C42.36 42.2463 42.6294 41.0694 43.2817 40.002C43.4803 39.6735 44.3028 38.6882 45.1253 37.8123C45.9479 36.9228 46.8129 35.9374 47.0398 35.609C48.1034 34.1173 49.0252 31.435 48.6991 30.7507C48.5431 30.4223 48.0325 30.1075 47.6638 30.1075C47.2809 30.1075 46.7562 30.6549 46.6711 31.1613C46.3308 32.9814 45.409 34.5415 43.4945 36.5259L43.0587 36.9734C42.6734 37.369 42.0566 37.4232 41.6083 37.1007V37.1007C41.1829 36.7996 40.4171 36.3206 39.8924 36.0469V36.0469C39.3016 35.7535 38.928 35.1508 38.928 34.4912V32.393C38.9139 29.7791 38.8855 29.1632 38.7011 28.9443C38.5168 28.6979 38.2757 28.6569 36.7583 28.6022V28.6022C35.7863 28.5637 35.0122 27.7752 34.9918 26.8026L34.9856 26.5083L34.9712 25.8293C34.9558 25.0979 35.5445 24.4966 36.2761 24.4966V24.4966C37.4815 24.4966 37.6375 24.4692 37.907 24.1818C38.3182 23.7576 38.3041 23.1965 37.8644 22.7722V22.7722C37.6372 22.553 37.3329 22.4319 37.0172 22.4351L33.4966 22.4712C29.001 22.5259 28.6749 22.5806 27.2425 23.6344C26.3917 24.2502 25.3564 25.4545 25.2288 25.9609C25.087 26.4673 25.328 27.001 25.796 27.2199C26.3491 27.4663 26.6186 27.3157 27.4978 26.2757C27.98 25.6872 28.4905 25.2493 29.001 24.9756C29.6959 24.6197 29.937 24.565 31.3126 24.5239V24.5239C32.1417 24.494 32.83 25.158 32.83 25.9876V26.5357V26.9713C32.83 27.872 32.0999 28.6022 31.1992 28.6022V28.6022C28.8592 28.6022 29.001 28.3558 29.001 32.3519V34.3392C29.001 35.0859 28.5856 35.7705 27.9232 36.1153V36.1153C27.3418 36.4301 26.4767 36.9638 26.0088 37.306L25.7982 37.4617C25.4006 37.7559 24.8783 37.8214 24.4204 37.6344V37.6344C24.0234 37.4702 23.3285 37.2923 22.8747 37.2512V37.2512C22.4098 37.2125 22.0521 36.8239 22.0521 36.3574V32.174C22.0521 26.522 21.9812 25.9609 21.102 24.2366C20.0951 22.2796 17.9537 20.61 15.7272 20.0489C14.6494 19.7752 12.6073 19.7889 11.5011 20.0626C9.35975 20.5963 7.28926 22.1701 6.28238 24.0176C5.26131 25.9062 5.27549 25.8925 5.20459 31.8319L5.16862 36.3562C5.16488 36.8264 4.8074 37.2182 4.33952 37.2649V37.2649C2.65193 37.4018 1.1487 38.4555 0.411262 40.002V40.002C0.140608 40.5603 0 41.1728 0 41.7933V53.6461V65.5914C0 66.1512 0.126021 66.7038 0.368717 67.2082V67.2082C0.893431 68.2893 1.64505 69.0283 2.73702 69.5484V69.5484C3.3626 69.8457 4.04655 70 4.7392 70H33.7518H62.9347C63.5151 70 64.0879 69.869 64.6106 69.6168V69.6168C65.5608 69.1789 66.6244 68.1251 67.0498 67.2219C67.3618 66.5787 67.3618 66.565 67.4044 54.8778C67.4469 42.4516 67.4327 41.9179 66.7804 40.262C66.3266 39.0987 65.7026 38.2229 64.171 36.608C62.5401 34.911 61.746 33.7341 61.2354 32.3519V32.3519C60.9727 31.6365 60.835 30.8812 60.8285 30.1191L60.7675 22.9501L60.7002 15.0441C60.6979 14.7739 60.5709 14.5199 60.3562 14.3558V14.3558C60.1151 14.1642 59.8031 14.0958 59.1933 14.0958V14.0958C58.7312 14.0958 58.3566 13.7212 58.3566 13.2591V12.2483V12.2483C58.3566 11.2279 59.1838 10.4008 60.2041 10.4008H62.8238H66.8225C67.1314 10.4008 67.4276 10.2777 67.6455 10.0587V10.0587C67.9858 9.74389 68 9.64809 68 8.06061V8.06061C68 7.00029 67.579 5.98334 66.8297 5.23321L65.7168 4.11926C64.4546 2.8739 62.9939 1.43695 62.4692 0.916911V0.916911C61.8501 0.328258 61.0285 6.51926e-08 60.1742 6.51926e-08H57.8035H54.5706C54.2617 6.51926e-08 53.9655 0.12313 53.7476 0.342131V0.342131C53.5491 0.520039 53.3931 0.8348 53.3931 1.02639C53.3931 1.21799 53.5491 1.53275 53.7476 1.71066V1.71066C53.9655 1.92966 54.2617 2.05279 54.5706 2.05279H57.3214V2.05279C59.3956 2.05279 61.3888 2.85771 62.8814 4.29806L63.2208 4.62561C65.8302 7.1437 65.8728 7.19844 65.8728 7.77322V7.77322C65.8728 8.09066 65.6154 8.348 65.298 8.348H61.4198C57.1512 8.348 56.9668 8.36168 56.6123 8.63539V8.63539C56.3716 8.80742 56.2275 9.08392 56.2242 9.37973L56.201 11.4682L56.1979 11.659C56.1759 12.9798 55.111 14.0455 53.7902 14.0684V14.0684V14.0684C52.4788 14.0835 51.4077 13.0246 51.4077 11.7132V10.7429C51.4077 7.65005 51.3935 7.37634 51.1383 7.13001C50.9964 6.99316 49.1103 6.3089 46.9264 5.61095C44.6573 4.88563 42.7712 4.20137 42.5159 4.00978C41.9061 3.57185 41.8778 3.01075 42.4592 2.44966V2.44966C42.723 2.19506 43.0754 2.05279 43.442 2.05279H46.4442H49.5212C49.8301 2.05279 50.1262 1.92966 50.3441 1.71066V1.71066C50.5426 1.53275 50.6986 1.21799 50.6986 1.02639C50.6986 0.8348 50.5426 0.520039 50.3441 0.342131V0.342131C50.1263 0.123219 49.8299 0.000650154 49.5212 0.00180512L46.3449 0.0136853C43.5086 0.0136853 42.5585 0.0684263 42.0905 0.218964ZM58.6119 18.2972V18.2972C58.5882 19.5011 57.6109 20.4677 56.4067 20.478L53.7902 20.5005L51.1865 20.5154C49.9792 20.5222 48.9969 19.5455 48.9969 18.3382V18.3382V18.3382C48.9969 17.1289 49.9772 16.1486 51.1865 16.1486H53.8186H56.5054C57.6853 16.1486 58.6352 17.1175 58.6119 18.2972V18.2972ZM16.3087 22.4301C17.4715 22.9775 18.606 24.0176 19.1308 25.0166C19.8115 26.303 19.9249 27.0557 19.9249 30.0665V31.482C19.9249 32.2354 19.3023 32.8397 18.5493 32.8172V32.8172V32.8172C17.7717 32.7942 17.1497 32.1638 17.1373 31.3859L17.117 30.1212C17.0886 27.8768 17.0461 27.4115 16.8475 27.2063C16.6348 26.9873 16.337 26.9599 13.6567 26.9599C10.8913 26.9599 10.6928 26.9736 10.4234 27.2336C10.1539 27.4936 10.1397 27.6852 10.1397 30.176V31.4123C10.1397 32.2033 9.49845 32.8446 8.7074 32.8446V32.8446V32.8446C7.92069 32.8446 7.28708 32.1991 7.3017 31.4125L7.3318 29.7928C7.40271 26.3578 7.50198 25.8788 8.43795 24.5239C9.13285 23.5249 10.2674 22.6491 11.4586 22.2248C12.2244 21.9374 12.5364 21.8964 13.8269 21.9374C15.1883 21.9785 15.401 22.0196 16.3087 22.4301ZM14.9614 30.9286V31.4973C14.9614 32.2414 14.3582 32.8446 13.6142 32.8446V32.8446V32.8446C12.8701 32.8446 12.2669 32.2414 12.2669 31.4973V30.9286V30.3599C12.2669 29.6159 12.8701 29.0127 13.6142 29.0127V29.0127V29.0127C14.3582 29.0127 14.9614 29.6159 14.9614 30.3599V30.9286ZM36.8008 32.7761V34.025C36.8008 34.4956 36.3885 34.8597 35.9216 34.8016V34.8016C34.8012 34.6647 33.0002 34.6647 31.9508 34.8016V34.8016C31.5128 34.8526 31.1283 34.5102 31.1283 34.0693V32.7761V32.7761C31.1283 31.6046 32.078 30.6549 33.2495 30.6549H33.9645H34.6796C35.8511 30.6549 36.8008 31.6046 36.8008 32.7761V32.7761ZM19.9249 36.0606V36.0606C19.9249 36.703 19.4041 37.2239 18.7617 37.2239H13.6142H8.46668C7.82424 37.2239 7.30344 36.703 7.30344 36.0606V36.0606V36.0606C7.30344 35.4182 7.82424 34.8974 8.46669 34.8974H13.6142H18.7617C19.4041 34.8974 19.9249 35.4182 19.9249 36.0606V36.0606ZM36.5881 37.0186C38.3891 37.4702 41.2963 39.0987 41.112 39.5503C40.644 40.5904 40.3462 41.5621 40.2753 42.2463V42.2463C40.2278 42.639 39.7981 42.8591 39.4517 42.6681L39.084 42.4653C35.9358 40.7273 32.4613 40.6588 29.2138 42.26C28.7458 42.4927 28.136 42.8348 27.8665 43.0401V43.0401C27.6504 43.195 27.3483 43.0517 27.3315 42.7864L27.2851 42.0547C27.2284 41.1378 27.1007 40.4946 26.9022 40.0704V40.0704C26.7369 39.6955 26.8566 39.256 27.1893 39.0168L27.3418 38.9071C28.8734 37.7986 30.249 37.2102 32.05 36.868C33.2413 36.6491 35.3827 36.7175 36.5881 37.0186ZM23.5837 39.5367C24.931 40.2072 25.1721 40.8368 25.1721 43.6559V43.6559C25.1721 44.8652 24.1917 45.8456 22.9824 45.8456H13.6142H4.15015C2.99376 45.8456 2.05631 44.9081 2.05631 43.7517V43.7517C2.05631 42.6158 2.12722 41.4389 2.19812 41.1652C2.39666 40.4809 2.9781 39.8377 3.68717 39.5367C4.21189 39.304 4.83587 39.2766 13.6567 39.2766C22.6194 39.2766 23.0874 39.2903 23.5837 39.5367ZM35.4252 43.3138C36.7583 43.5327 38.3182 44.2581 39.3251 45.1065V45.1065C39.7931 45.506 40.0626 46.0904 40.0626 46.7057V52.3324V58.2089C40.0626 58.6681 39.8727 59.107 39.5378 59.4213V59.4213C38.843 60.0645 37.5241 60.8309 36.6023 61.1183C35.8365 61.3509 35.2409 61.8436 35.2409 62.2405C35.2409 62.5826 35.638 63.089 36.035 63.2258C36.4605 63.39 38.2048 62.8152 39.2826 62.1584V62.1584C39.6016 61.9675 40.0086 62.1883 40.0224 62.5598L40.0767 64.0196C40.1476 66.0313 40.2044 66.4145 40.5164 67.1672V67.1672C40.6905 67.5678 40.3968 68.0156 39.9599 68.0156H33.6525H26.7999C26.6382 68.0156 26.5422 67.8349 26.6327 67.7009V67.7009C27.1433 66.9482 27.2993 65.9629 27.2993 63.609V62.2767C27.2993 61.8543 27.7674 61.6 28.1218 61.8299V61.8299C29.1712 62.5279 29.5967 62.7331 30.6744 63.0753C31.9082 63.4585 32.5889 63.1711 32.5889 62.2678C32.5889 61.7341 32.2486 61.392 31.5112 61.1867C30.4617 60.8719 29.2421 60.174 28.2636 59.2708V59.2708C27.65 58.7222 27.2993 57.9381 27.2993 57.115V52.3597V47.4351C27.2993 46.7181 27.5972 46.0333 28.1218 45.5445V45.5445C29.4548 44.2717 31.029 43.4917 32.7449 43.2454C33.8369 43.0948 34.2198 43.0948 35.4252 43.3138ZM55.1658 44.6823C56.7399 45.0792 57.8177 45.8866 59.4628 47.871V47.871C59.7589 48.2347 60.203 48.4457 60.672 48.4457H62.6252V48.4457C64.1055 48.4457 65.3055 49.6458 65.3055 51.126V52.825V54.6658C65.3055 56.0678 64.169 57.2043 62.767 57.2043V57.2043C61.3631 57.2043 60.1151 57.2454 59.9875 57.2864C59.874 57.3412 59.406 57.8201 58.9806 58.3812C56.0167 62.172 51.1808 62.0626 48.4154 58.1486C48.1176 57.7243 47.7773 57.3412 47.6496 57.2864C47.522 57.2454 46.2315 57.2043 44.7992 57.2043V57.2043C43.3608 57.2043 42.1974 56.0333 42.2068 54.595L42.2181 52.8524L42.2336 51.2806C42.2487 49.7354 43.4814 48.4779 45.0261 48.4321V48.4321V48.4321C46.8385 48.383 48.2851 47.4664 49.5854 46.2028C49.6901 46.1011 49.7839 46.0166 49.8619 45.955C51.507 44.6686 53.3506 44.2307 55.1658 44.6823ZM25.1721 53.6461V54.6432C25.1721 57.2669 23.0451 59.3939 20.4213 59.3939V59.3939H16.1389C15.83 59.3939 15.5338 59.5171 15.316 59.7361V59.7361C14.8621 60.1603 14.8621 60.6804 15.316 61.1046V61.1046C15.5338 61.3236 15.83 61.4467 16.1389 61.4467H20.4213H22.955C24.1795 61.4467 25.1721 62.4393 25.1721 63.6637V63.6637C25.1721 66.086 25.0302 66.6471 24.307 67.2903C23.4703 68.0293 23.6546 68.0156 13.5716 68.0156H4.92494C4.46544 68.0156 4.01235 67.9078 3.60208 67.7009V67.7009C3.26173 67.523 2.79374 67.1124 2.55266 66.7977V66.7977C2.27569 66.4146 2.12269 65.9558 2.11424 65.4832L2.08467 63.828V63.828C2.05356 62.5221 3.10364 61.4467 4.40985 61.4467H6.80709H11.0895C11.3984 61.4467 11.6945 61.3236 11.9124 61.1046V61.1046C12.1109 60.9267 12.2669 60.6119 12.2669 60.4203C12.2669 60.2287 12.1109 59.914 11.9124 59.7361V59.7361C11.6945 59.5171 11.3984 59.3939 11.0895 59.3939H6.80709V59.3939C4.18331 59.3939 2.05631 57.2669 2.05631 54.6432V53.6461V53.6461C2.05631 50.4717 4.62969 47.8983 7.80411 47.8983H13.6142H19.4242C22.5987 47.8983 25.1721 50.4717 25.1721 53.6461V53.6461ZM46.9122 59.6403C47.3376 60.3382 49.0394 61.7752 50.0747 62.2952C52.6557 63.609 55.6621 63.4858 58.073 61.9804C59.1224 61.3372 60.03 60.5298 60.5547 59.8045V59.8045C60.8042 59.4606 61.2033 59.2571 61.6281 59.2571H63.1216V59.2571C64.3277 59.2571 65.3055 60.2349 65.3055 61.441V62.5415C65.3055 65.2102 65.263 65.9355 65.0928 66.346C64.795 67.0166 64.3554 67.4545 63.6747 67.7556C63.1358 67.9883 62.5401 68.0156 53.7335 68.0156H45.0584C44.5989 68.0156 44.1458 67.9078 43.7356 67.7009V67.7009C43.3243 67.4819 42.9698 67.1535 42.6861 66.7155V66.7155C42.4082 66.2864 42.2573 65.7873 42.2509 65.2761L42.2181 62.651L42.1991 61.5116C42.1784 60.2726 43.1771 59.2571 44.4163 59.2571V59.2571H46.2184C46.5001 59.2571 46.7622 59.4018 46.9122 59.6403V59.6403Z" fill="black"/>
<path d="M50.7127 48.2542C50.3298 48.7331 50.344 49.0342 50.7553 49.4995V49.4995C50.9722 49.7438 51.2814 49.8861 51.608 49.8921L53.3221 49.9238C55.8322 49.9785 56.4136 49.9101 56.8107 49.5269C57.1653 49.1848 57.1511 48.5142 56.7965 48.172C56.5271 47.912 56.3286 47.8983 53.7617 47.8983H51.4514C51.1638 47.8983 50.8919 48.0293 50.7127 48.2542V48.2542Z" fill="black"/>
<path d="M50.7127 52.2229C50.3298 52.7019 50.344 53.003 50.7553 53.4683V53.4683C50.9717 53.712 51.2821 53.8514 51.6081 53.8514H53.8184C56.4987 53.8514 56.5413 53.8514 56.8107 53.523C57.1653 53.1124 57.1511 52.4829 56.7965 52.1408C56.5271 51.8808 56.3286 51.8671 53.7617 51.8671H51.4514C51.1638 51.8671 50.8919 51.998 50.7127 52.2229V52.2229Z" fill="black"/>
<path d="M50.7693 56.1779C50.3722 56.5474 50.3439 56.7527 50.5708 57.2453C50.8402 57.8064 51.2515 57.8885 53.875 57.8885C56.1441 57.8885 56.3568 57.8612 56.7113 57.6012C57.1793 57.2453 57.2219 56.52 56.7964 56.1095C56.527 55.8494 56.3284 55.8358 53.8183 55.8358C51.138 55.8358 51.1097 55.8358 50.7693 56.1779Z" fill="black"/>
<path d="M6.4526 50.1017C5.09118 50.6901 4.19775 51.9081 4.07012 53.3177C3.94249 54.8504 4.82174 56.3832 6.2257 57.1085C7.03404 57.5191 8.94854 57.5327 9.78524 57.1359C12.1819 55.9863 12.7775 52.9756 11.0048 51.0186C10.7496 50.7449 10.2249 50.3617 9.82779 50.1701C8.87763 49.7048 7.41694 49.6774 6.4526 50.1017ZM9.00526 52.0723C9.44489 52.2913 9.67179 52.6061 9.85615 53.2493C10.154 54.2346 9.2038 55.4252 8.14019 55.4252C6.23988 55.4252 5.47408 53.2903 6.96314 52.1544C7.41694 51.8123 8.39546 51.7713 9.00526 52.0723Z" fill="black"/>
<path d="M13.8267 50.9092C13.4012 51.3197 13.4438 52.045 13.9118 52.4008C14.2805 52.6745 14.4648 52.6882 18.2938 52.6882C22.1228 52.6882 22.3072 52.6745 22.6759 52.4008C23.1581 52.0313 23.1864 51.3197 22.7326 50.9092C22.4348 50.6491 22.2504 50.6354 18.2655 50.6354C14.2947 50.6354 14.0961 50.6491 13.8267 50.9092Z" fill="black"/>
<path d="M13.8552 54.9188C13.4156 55.3704 13.444 56.0137 13.9119 56.3695C14.2807 56.6432 14.465 56.6569 18.294 56.6569C22.123 56.6569 22.3074 56.6432 22.6761 56.3695C23.1582 56 23.1866 55.3157 22.7186 54.9051C22.3924 54.6041 22.3074 54.6041 18.2798 54.6041H14.5863C14.3097 54.6041 14.0453 54.7179 13.8552 54.9188V54.9188Z" fill="black"/>
</svg>
