<svg width="46" height="46" viewBox="0 0 46 46" fill="none" xmlns="http://www.w3.org/2000/svg">
<path d="M23 0C10.2971 0 0 10.2971 0 23C0 35.7029 10.2971 46 23 46C35.7029 46 46 35.7029 46 23C46 10.2971 35.7029 0 23 0Z" fill="url(#paint0_linear_300_241)"/>
<path d="M26.1132 29.0962H32.0656L33.0005 23.0495H26.1132V19.7444C26.1132 17.2328 26.9343 15.0052 29.2837 15.0052H33.0592V9.729C32.3956 9.6393 30.9926 9.4438 28.3419 9.4438C22.8058 9.4438 19.5605 12.3671 19.5605 19.0279V23.0506H13.8691V29.0973H19.5593V45.7171C20.6863 45.885 21.8283 46 23.0001 46C24.0593 46 25.0931 45.9034 26.1132 45.7654V29.0962Z" fill="white"/>
<defs>
<linearGradient id="paint0_linear_300_241" x1="6.89195" y1="6.89195" x2="42.1072" y2="42.1072" gradientUnits="userSpaceOnUse">
<stop stop-color="#2AA4F4"/>
<stop offset="1" stop-color="#007AD9"/>
</linearGradient>
</defs>
</svg>
