<svg width="46" height="46" viewBox="0 0 46 46" fill="none" xmlns="http://www.w3.org/2000/svg">
<path d="M45.5781 9.55778C45.067 9.89 44.3387 10.1967 44.032 10.5417C43.917 10.6567 43.8531 10.7844 43.8787 10.9122V12.2283L43.4953 13.5189L43.112 14.7967L42.6903 16.2022L41.8214 19.0772L40.9781 21.9139L40.3392 24.0478C40.3392 24.38 40.3264 24.7122 40.3009 25.0317C40.2114 26.2583 39.9559 27.4339 39.547 28.5328C39.3042 29.21 39.0103 29.8617 38.6525 30.475C38.5248 30.7178 38.3714 30.9606 38.2181 31.1906C37.707 31.9956 37.0937 32.7367 36.4164 33.3883C35.8925 33.9122 35.3175 34.3978 34.6914 34.8067C34.6914 34.8067 34.6914 34.8067 34.6787 34.8067C34.5764 34.8961 34.4614 34.9728 34.3337 35.0367C33.9375 35.305 33.5159 35.535 33.0814 35.7394C32.7875 35.8928 32.4937 36.0206 32.187 36.1356C32.1231 36.1739 32.0464 36.1994 31.9825 36.225C31.2542 36.57 30.4109 36.8 29.5675 36.915C29.5164 36.9278 29.4781 36.9278 29.427 36.9406C28.9159 37.03 28.4175 37.1067 27.9064 37.145C27.6764 37.1706 27.4337 37.1833 27.2037 37.1833L26.2964 37.1322L21.9264 36.9022C21.9264 36.8894 21.9137 36.9022 21.9137 36.9022L19.7159 36.7872C19.5498 36.7872 19.3709 36.7872 19.2048 36.7744C18.5148 36.7489 17.8503 36.6722 17.1859 36.5317C17.1731 36.5317 17.1731 36.5317 17.1731 36.5317C15.9592 36.3017 14.7964 35.8928 13.7103 35.3433C13.1098 35.0367 12.522 34.6917 11.9725 34.2956C11.7425 34.1294 11.5253 33.9506 11.3081 33.7589C10.6948 33.2478 10.1453 32.6983 9.63421 32.1361C9.55754 32.0594 9.49366 31.9828 9.42977 31.9061C9.3531 31.8294 9.27643 31.74 9.21254 31.6633C8.72699 31.05 8.3181 30.4239 7.98588 29.7594C7.67921 29.1717 7.43643 28.5456 7.24477 27.8556C7.1681 27.6128 7.10421 27.3828 7.0531 27.1272C7.04032 27.1144 7.02754 27.0889 7.02754 27.0633C6.89977 26.5394 6.78477 25.99 6.72088 25.4406C6.64421 25.0189 6.60588 24.5972 6.60588 24.1628C6.58032 23.9967 6.58032 23.8178 6.58032 23.6517L9.02088 19.8822L11.4103 16.2022L12.4964 14.5283L13.4803 13.0206L13.8125 12.4967V11.1806C13.8381 10.8867 13.8509 10.58 13.8381 10.2989C13.8253 9.40445 13.6464 8.53556 13.3525 7.705C13.0714 6.82333 12.6753 5.99278 12.2664 5.22611C11.7809 4.34444 11.2698 3.55222 10.8481 2.83667C10.222 1.78889 9.78754 0.932778 9.90254 0.332223C10.8225 0.115 11.7937 0 12.7775 0H33.222C38.5631 0 43.1631 3.32222 45.067 7.99889C45.2714 8.49722 45.4503 9.02111 45.5781 9.55778Z" fill="#304FFE"/>
<path d="M45.9998 12.7778V13.1228L44.2365 14.145L43.112 14.7967L41.8726 15.5122L39.3937 16.9561L36.9659 18.3617L34.487 19.7928L33.5031 20.3678C33.5031 20.9811 33.3498 21.5433 33.0687 22.0544C32.6726 22.7956 32.0081 23.4089 31.1648 23.9328C30.3087 24.4567 29.2609 24.8783 28.0853 25.185C28.0853 25.185 28.0853 25.1722 28.0726 25.185C23.5237 26.3606 17.3137 25.8239 14.2981 23.575C13.4548 22.9489 12.867 22.1822 12.6115 21.3006C12.5348 21.0067 12.4965 20.6872 12.4965 20.3678V11.1806C12.5092 10.9889 12.3815 10.7972 12.1515 10.6056C11.4615 10.0561 9.83868 9.53222 8.02424 9.00833C6.60591 8.61222 5.08535 8.21611 3.80757 7.83278C2.79813 7.52611 1.94202 7.21944 1.43091 6.92556C1.66091 6.47833 1.92924 6.03111 2.21035 5.60944C3.99924 2.99 6.73369 1.06056 9.90257 0.332223C10.8226 0.115 11.7937 0 12.7776 0H26.5776C33.4392 1.20111 39.7642 3.99944 45.067 7.99889C45.2715 8.49722 45.4503 9.02111 45.5781 9.55778C45.8081 10.4011 45.9487 11.27 45.987 12.1772C45.9998 12.3689 45.9998 12.5733 45.9998 12.7778Z" fill="#4928F4"/>
<path d="M45.9998 12.7778V18.4128L45.7187 19.2817L44.7604 22.2589L43.7637 25.3256L43.2398 26.9611L42.7543 28.4817L42.2815 29.9256L41.8215 31.3567L41.5787 32.1106L41.2593 33.1072C41.2593 34.0783 41.2337 34.9345 41.1698 35.6628C41.157 35.7395 41.1443 35.8161 41.1443 35.8928C41.0676 36.57 40.9654 37.145 40.7993 37.6306C40.7865 37.7072 40.7609 37.7839 40.7354 37.8478C40.4032 38.7678 39.9048 39.3556 39.1637 39.7389C38.9848 39.8411 38.7804 39.9178 38.5631 39.9945C37.8859 40.2245 37.0298 40.3395 35.982 40.4033C35.2154 40.4545 34.3337 40.4672 33.337 40.4672H32.4554L30.9348 40.4033L30.6665 40.3906L27.8937 40.2756L25.0826 40.1606L15.8187 39.7772L13.4165 39.675H13.0843C12.0876 39.6622 11.2315 39.5983 10.4904 39.4961C9.41704 39.33 8.58648 39.0489 7.96037 38.6272C7.06593 38.0522 6.54204 37.2089 6.23537 36.0333C6.15871 35.7522 6.09482 35.4583 6.05648 35.1389C5.92871 34.3978 5.86482 33.5417 5.82649 32.5833C5.82649 32.3917 5.82649 32.2 5.81371 31.9956C5.80093 31.9828 5.81371 31.9828 5.81371 31.9828V31.2417C5.80093 30.8711 5.80093 30.4878 5.80093 30.0917L5.86482 28.0345L5.90315 26.565L5.95426 24.8528V24.61L6.04371 21.4667L6.13315 18.3233L6.2226 15.3717L6.29926 12.4711L6.32482 11.7045C6.32482 11.3083 4.98315 11.0783 3.48815 10.8867C2.29982 10.7333 0.996485 10.5928 0.217041 10.4139C0.28093 10.12 0.344819 9.82612 0.421485 9.54501C0.651485 8.62501 0.996485 7.75612 1.43093 6.92556C1.66093 6.47834 1.92926 6.03112 2.21037 5.60945C4.97037 4.39556 7.84537 3.45001 10.8482 2.83667C13.4804 2.28723 16.2276 1.99334 19.0643 1.99334C28.4687 1.99334 37.1576 5.17501 44.032 10.5417C44.6965 11.0528 45.3481 11.6022 45.987 12.1772C45.9998 12.3689 45.9998 12.5733 45.9998 12.7778Z" fill="#6200EA"/>
<path d="M46 15.8061V21.6072L45.2972 22.9617L43.9556 25.5811L43.24 26.9611L42.5883 28.2261L42.3072 28.7755C42.3072 29.1717 42.3072 29.555 42.2817 29.9255C42.2817 30.475 42.2561 30.9989 42.2178 31.4844C42.1667 32.0594 42.09 32.5833 42.0133 33.0689C41.8217 34.0783 41.5533 34.9472 41.17 35.6628C41.1189 35.7522 41.0678 35.8417 41.0167 35.9183C40.8761 36.1483 40.71 36.3655 40.5311 36.57C40.3011 36.8511 40.0456 37.0939 39.7517 37.2983C39.3172 37.6305 38.8061 37.8989 38.2183 38.1033C37.49 38.3717 36.6467 38.5505 35.65 38.6528C34.9983 38.7167 34.2828 38.755 33.5033 38.755L32.9667 38.7805L30.3089 38.9339H30.2961L27.4722 39.1L24.5972 39.2661L20.6361 39.4961L15.8189 39.7772L15.1161 39.8155C14.4644 39.8155 13.8511 39.7772 13.2633 39.7005C13.1994 39.6878 13.1483 39.675 13.0844 39.675C12.2156 39.5344 11.4233 39.3044 10.7078 38.985C9.83889 38.6017 9.085 38.0905 8.44611 37.4772C7.88389 36.9278 7.39833 36.3017 7.00222 35.5989C6.91278 35.4328 6.82333 35.2794 6.74667 35.1005C6.36333 34.3467 6.05667 33.5033 5.82667 32.5833C5.78833 32.43 5.75 32.2639 5.72444 32.0978C5.64778 31.8039 5.58389 31.4972 5.54556 31.1778C5.405 30.36 5.32833 29.4911 5.29 28.5839V28.5711C5.27722 28.2005 5.26444 27.8428 5.26444 27.4594L4.63833 25.9644L4.54889 25.7344L4.47222 25.5428L3.51389 23.2555L3.36056 22.885L2.44056 20.6744L1.41833 18.2083C1.41833 18.2083 1.41833 18.2083 1.40556 18.2083L0.370555 15.7167L0 14.8094V12.7778C0 11.9728 0.0766668 11.1805 0.217222 10.4139C0.281111 10.12 0.345 9.8261 0.421667 9.54499C1.50778 8.91888 2.645 8.34388 3.80778 7.83277C6.46555 6.64444 9.315 5.76277 12.2667 5.2261C14.4644 4.82999 16.7517 4.61277 19.0644 4.61277C28.405 4.61277 36.8767 7.99888 43.4956 13.5189C43.7511 13.7233 43.9939 13.9278 44.2367 14.145C44.8372 14.6689 45.425 15.2183 46 15.8061Z" fill="#673AB7"/>
<path d="M46 19.6139V26.1817L45.2717 27.7022L43.8917 30.5772L43.8789 30.6155C43.8789 31.165 43.8533 31.6633 43.815 32.1105C43.6872 33.58 43.3294 34.5128 42.7417 35.0878C42.32 35.5222 41.7961 35.765 41.1444 35.8928C41.1061 35.9056 41.055 35.9056 41.0167 35.9183C40.8122 35.9567 40.595 35.9822 40.365 35.9822C39.5728 36.0589 38.64 36.0078 37.5667 35.9311C37.4517 35.9311 37.3239 35.9183 37.1961 35.9055C36.4167 35.8544 35.5861 35.8033 34.6661 35.765C34.1678 35.7522 33.6439 35.7394 33.1072 35.7394H33.0817L31.7911 35.8417H31.7783L28.8778 36.0461L25.5683 36.3017L25.0828 36.34L21.2111 36.6211L19.205 36.7744L17.2244 36.915C16.8794 36.915 16.5472 36.915 16.215 36.9022C16.215 36.9022 16.2022 36.8894 16.2022 36.9022C14.7583 36.8767 13.4678 36.7872 12.3178 36.57C11.2572 36.3911 10.3244 36.11 9.53222 35.6883C8.71444 35.2922 8.03722 34.73 7.48778 34.0144C6.96389 33.3117 6.58056 32.43 6.33778 31.3694C6.33778 31.3567 6.33778 31.3567 6.33778 31.3567C6.15889 30.5006 6.05667 29.5039 6.05667 28.3794L5.865 28.0344L4.72778 26.0028L4.56167 25.7217L4.47222 25.5428L3.28389 23.4344L2.69611 22.3739L1.955 21.0578L0.677222 18.7706L0 17.5694V12.8672C1.12444 12.1261 2.28722 11.4744 3.48833 10.8867C4.945 10.1456 6.45278 9.51944 8.02444 9.00833C9.73667 8.44611 11.5256 7.99888 13.3528 7.70499C15.2056 7.39833 17.1094 7.245 19.0644 7.245C27.7533 7.245 35.7267 10.35 41.8728 15.5122C42.1539 15.7294 42.4222 15.9722 42.6906 16.2022C43.7639 17.1606 44.7861 18.1956 45.7189 19.2817C45.8211 19.3967 45.9233 19.4989 46 19.6139Z" fill="#8E24AA"/>
<path d="M46 23.9072V33.1456C45.6933 32.9667 45.2717 32.7494 44.7478 32.5194C44.4667 32.3789 44.1472 32.2383 43.815 32.1106C43.3294 31.8933 42.8056 31.6889 42.2178 31.4844C42.09 31.4333 41.9622 31.395 41.8217 31.3567C41.5917 31.2672 41.3489 31.1906 41.1061 31.1139C40.3522 30.8839 39.5217 30.6667 38.6528 30.475C38.3206 30.4111 37.9756 30.3472 37.6306 30.2961C36.5189 30.1044 35.3306 29.9894 34.0911 29.9767C33.9889 29.9639 33.8739 29.9639 33.7717 29.9639L30.4878 29.9894L26.0156 30.015H26.0028L16.4322 30.0917C13.3911 30.0917 11.5256 30.82 10.4011 31.1139C10.4011 31.1139 10.3883 31.1139 10.3883 31.1267C9.2 31.4333 8.82944 31.2417 8.72722 29.1589C8.70167 28.5839 8.68889 27.8428 8.68889 26.9356L7.97333 26.3861L6.72111 25.4406L5.95444 24.8528L5.80111 24.7378L3.68 23.1278L3.36056 22.885L2.69611 22.3739L1.46944 21.4539L0 20.3294V15.985C0.127778 15.8828 0.242778 15.7933 0.370555 15.7167C2.22333 14.4389 4.20389 13.3528 6.29944 12.4711C8.165 11.6789 10.1328 11.0528 12.1517 10.6056C12.7011 10.4906 13.2633 10.3756 13.8383 10.2989C15.5378 10.005 17.2883 9.86444 19.0644 9.86444C26.7439 9.86444 33.7972 12.535 39.3939 16.9561C40.2372 17.6206 41.055 18.3233 41.8217 19.0772C42.8694 20.0739 43.8533 21.1344 44.7606 22.2589C44.9394 22.4889 45.1183 22.7189 45.2972 22.9617C45.54 23.2683 45.77 23.5878 46 23.9072Z" fill="#C2185B"/>
<path d="M46 29.0311V33.2222C46 34.0528 45.9233 34.8706 45.77 35.6628C45.54 36.8383 45.1439 37.9628 44.6072 39.0106C44.3261 39.0744 44.0067 39.0744 43.6489 39.0233C42.8439 38.8828 41.8983 38.4611 40.8761 37.9117C40.825 37.8989 40.7739 37.8733 40.7356 37.8478C40.4161 37.6817 40.0839 37.5028 39.7517 37.2983C39.0744 36.9278 38.3589 36.5189 37.6433 36.1356C37.49 36.0589 37.3367 35.9822 37.1961 35.9056C36.3783 35.4839 35.535 35.1006 34.6917 34.8067C34.6917 34.8067 34.6917 34.8067 34.6789 34.8067C34.5 34.7428 34.3083 34.6789 34.1167 34.6278C33.3883 34.4233 32.6472 34.2956 31.9317 34.2956L30.5261 33.8867L24.3033 32.085C24.3033 32.085 24.3033 32.085 24.2906 32.085L20.47 30.9733H20.4572L18.7961 30.4878C13.9917 30.4878 11.04 32.5322 9.60889 31.7528C9.04667 31.4589 8.71444 30.7178 8.59944 29.2611C8.56111 28.8522 8.54833 28.3922 8.54833 27.8556L7.05333 27.1272L6.98944 27.1017H6.97667L5.90333 26.565L4.72778 26.0028L4.63833 25.9644L4.42111 25.8494L1.91667 24.6356L0 23.7028V19.32C0.217222 19.1283 0.447222 18.9494 0.677222 18.7706C0.92 18.5789 1.16278 18.4 1.40556 18.2083C1.41833 18.2083 1.41833 18.2083 1.41833 18.2083C2.92611 17.1222 4.52333 16.1639 6.22278 15.3717C8.20333 14.4261 10.3117 13.6978 12.4967 13.225C12.8161 13.1483 13.1483 13.0717 13.4806 13.0206C15.295 12.6756 17.1606 12.4967 19.0644 12.4967C25.7983 12.4967 31.9828 14.6817 36.9661 18.3617C38.41 19.435 39.7517 20.6233 40.9783 21.9139C41.9878 22.9744 42.9206 24.1244 43.7639 25.3256C43.8278 25.415 43.8917 25.5044 43.9556 25.5811C44.4283 26.2711 44.8628 26.9739 45.2717 27.7022C45.54 28.1367 45.77 28.5839 46 29.0311Z" fill="#D81B60"/>
<path d="M45.77 35.6628C45.54 36.8383 45.1439 37.9628 44.6072 39.0106C44.3644 39.4833 44.0961 39.9306 43.8022 40.365C43.6233 40.6333 43.4317 40.8889 43.24 41.1317C42.78 40.9528 42.1028 40.6972 41.2722 40.4161C41.2722 40.4161 41.2722 40.4161 41.2722 40.4033C40.6461 40.1861 39.9306 39.9561 39.1639 39.7389C38.9467 39.675 38.7294 39.6111 38.4994 39.5472C37.5922 39.3044 36.6467 39.0872 35.7267 38.9594C34.96 38.8317 34.2061 38.755 33.5033 38.755L32.9156 38.5889H32.9028L29.8106 37.6944L27.9067 37.145L25.7856 36.5317H25.7728L25.0828 36.34L16.7389 33.9378L14.3367 33.2478L12.5478 32.8261L9.63444 32.1361L9.27667 32.0467C9.27667 32.0467 9.27667 32.0467 9.26389 32.0467L6.33778 31.3694C6.33778 31.3567 6.33778 31.3567 6.33778 31.3567L5.81389 31.2417L5.54555 31.1778L3.41167 30.6794L3.16889 30.6156L1.35444 29.1206L0 27.9833V22.77C0.472778 22.31 0.958333 21.8756 1.46944 21.4539C1.62278 21.3133 1.78889 21.1856 1.955 21.0578C2.10833 20.93 2.27444 20.8022 2.44055 20.6744C3.60333 19.7928 4.83 19.0006 6.13333 18.3233C7.79444 17.4289 9.55778 16.7133 11.4106 16.2022C11.7683 16.0872 12.1261 15.985 12.4967 15.9083C14.5922 15.3844 16.79 15.1161 19.0644 15.1161C24.7761 15.1161 30.0917 16.8411 34.4872 19.7928C36.6722 21.2622 38.64 23.0256 40.3011 25.0317C41.1444 26.0411 41.9111 27.1017 42.5883 28.2261C42.6522 28.3156 42.7033 28.3922 42.7544 28.4817C43.1633 29.1589 43.5467 29.8617 43.8917 30.5772C44.2111 31.2161 44.4922 31.855 44.7478 32.5194C45.1567 33.5417 45.4889 34.5894 45.77 35.6628Z" fill="#F50057"/>
<path d="M43.8022 40.365C43.6233 40.6333 43.4317 40.8889 43.24 41.1317C42.6778 41.8344 42.0644 42.4733 41.3744 43.0356C40.7739 43.5339 40.135 43.9811 39.4578 44.3644C39.2022 44.3006 38.9467 44.2239 38.6783 44.1217C37.835 43.8278 36.9533 43.3422 36.1356 42.8311C34.9089 42.0517 33.8483 41.2083 33.3756 40.825C33.1967 40.6717 33.1072 40.595 33.1072 40.595L30.935 40.4033L30.6667 40.3778L27.8556 40.135L24.9422 39.8794L20.6361 39.4961L13.8128 38.8956L13.7872 38.8828L11.385 37.72L8.95722 36.5444L7.00222 35.5989L6.58055 35.3944L6.05667 35.1389L4.24222 34.2572L1.82722 33.0944L1.07333 32.7239L0 32.3917V26.68C0.600556 25.9644 1.23944 25.2872 1.91667 24.6356C2.35111 24.2267 2.81111 23.8178 3.28389 23.4344C3.36055 23.3706 3.43722 23.3067 3.51389 23.2556C3.565 23.1917 3.62889 23.1533 3.68 23.1278C4.43389 22.5144 5.22611 21.965 6.04389 21.4667C6.98944 20.8661 7.98611 20.3294 9.02111 19.8822C10.1328 19.3839 11.2956 18.9622 12.4967 18.6428C14.5794 18.055 16.79 17.7483 19.0644 17.7483C24.2778 17.7483 29.095 19.3328 33.0689 22.0544C35.6117 23.7922 37.8094 25.99 39.5472 28.5328C40.1222 29.3506 40.6333 30.2194 41.1061 31.1139C41.2722 31.4461 41.4383 31.7783 41.5789 32.1106C41.7322 32.43 41.8728 32.7494 42.0133 33.0689C42.2817 33.7333 42.5244 34.3978 42.7417 35.0878C43.1506 36.3656 43.4572 37.6689 43.6489 39.0233C43.7128 39.4706 43.7639 39.9178 43.8022 40.365Z" fill="#FF1744"/>
<path d="M41.3872 42.7033C41.3872 42.8055 41.3872 42.9206 41.3744 43.0356C40.7739 43.5339 40.135 43.9811 39.4578 44.3644C39.1767 44.5178 38.8956 44.6711 38.6017 44.7989C38.3078 44.9394 38.0139 45.0672 37.7072 45.1822C37.2728 44.9522 36.685 44.6711 36.0589 44.4028C35.1772 44.0067 34.2189 43.6489 33.4778 43.5339C33.2989 43.4956 33.1328 43.4828 32.9794 43.4828L30.8839 43.2144H30.8583L28.2517 42.8694L25.6194 42.5244L24.3928 42.3711L14.7328 41.1189C14.1067 41.1189 13.4422 41.0806 12.7522 40.9911C11.9089 40.9144 11.0272 40.7867 10.1456 40.6078C9.27667 40.4544 8.395 40.25 7.55167 40.0328C6.67 39.8283 5.80111 39.5856 4.99611 39.3556C4.06333 39.0744 3.19444 38.8061 2.46611 38.5633C1.86556 38.3717 1.35444 38.1928 0.958333 38.0522C0.728333 37.5028 0.536667 36.9278 0.396111 36.34C0.127778 35.3433 0 34.2956 0 33.2222V31.0883C0.408889 30.4111 0.856111 29.7467 1.35444 29.1206C2.26167 27.9194 3.29667 26.8206 4.42111 25.8494C4.45944 25.7983 4.51056 25.76 4.54889 25.7344L4.56167 25.7217C4.95778 25.3639 5.36667 25.0444 5.80111 24.7378C5.85222 24.6867 5.90333 24.6483 5.95444 24.61C6.15889 24.4567 6.37611 24.3033 6.60611 24.1628C8.43333 22.9233 10.4522 21.9522 12.6117 21.3006C14.6561 20.6872 16.8156 20.3678 19.0644 20.3678C23.5239 20.3678 27.6894 21.6839 31.165 23.9328C33.7333 25.5811 35.9439 27.7533 37.6306 30.2961C37.835 30.59 38.0267 30.8839 38.2183 31.1906C39.1 32.6856 39.8283 34.2956 40.365 35.9822C40.4289 36.1739 40.48 36.3656 40.5311 36.57C40.6333 36.915 40.7228 37.2728 40.7994 37.6306C40.825 37.72 40.8506 37.8094 40.8761 37.9117C41.055 38.7167 41.1828 39.56 41.2722 40.4033C41.2722 40.4161 41.2722 40.4161 41.2722 40.4161C41.3489 41.17 41.3872 41.9367 41.3872 42.7033Z" fill="#FF5722"/>
<path d="M38.7551 42.7033C38.7551 43.1506 38.7296 43.6361 38.6785 44.1217C38.6529 44.3517 38.6273 44.5817 38.6018 44.7989C38.3079 44.9394 38.014 45.0672 37.7073 45.1822C37.1323 45.3994 36.5446 45.5783 35.944 45.7061C35.5351 45.7956 35.1135 45.8722 34.6918 45.9106H34.679C34.2829 45.6678 33.8229 45.3739 33.3501 45.0417C32.494 44.4411 31.5996 43.7639 30.884 43.2144C30.8712 43.2017 30.8712 43.2017 30.8585 43.1889C30.1046 42.6139 29.5679 42.1794 29.5679 42.1794L28.2135 42.2306L25.6068 42.32L24.3929 42.3711L19.5118 42.55L15.3846 42.7033C15.1162 42.7161 14.7968 42.7161 14.4007 42.7033H14.3879C13.8512 42.6906 13.2123 42.6522 12.5096 42.5883C11.6918 42.5244 10.7973 42.4478 9.89013 42.3583C9.00846 42.2561 8.11402 42.1539 7.25791 42.0517C6.31235 41.9494 5.41791 41.8344 4.65124 41.7322C4.05068 41.6556 3.5268 41.5917 3.10513 41.5406C2.74735 41.1317 2.42791 40.71 2.12124 40.25C1.66124 39.56 1.26513 38.8317 0.958462 38.0522C0.728462 37.5028 0.536796 36.9278 0.39624 36.34C0.766796 35.2028 1.25235 34.1294 1.82735 33.0944C2.28735 32.2511 2.82402 31.4461 3.4118 30.6794C3.9868 29.9256 4.61291 29.2228 5.29013 28.5839V28.5711C5.4818 28.3794 5.67346 28.2006 5.86513 28.0344C6.22291 27.7022 6.59346 27.3956 6.97679 27.1017H6.98957C7.00235 27.0761 7.01513 27.0761 7.02791 27.0633C7.33457 26.8206 7.65402 26.6033 7.97346 26.3861C9.86457 25.0956 11.9985 24.1372 14.2985 23.575C15.819 23.2044 17.4162 23 19.0646 23C22.3101 23 25.3768 23.7794 28.0729 25.185H28.0857C30.3985 26.3733 32.4429 28.0089 34.0912 29.9767C34.9985 31.0244 35.7779 32.1744 36.4168 33.3883C36.864 34.2061 37.2473 35.0622 37.5668 35.9311C37.5923 36.0078 37.6179 36.0717 37.6435 36.1356C37.8607 36.7744 38.0523 37.4389 38.2185 38.1033C38.3335 38.5761 38.4229 39.0617 38.4996 39.5472C38.5251 39.7006 38.5507 39.8411 38.5635 39.9944C38.6912 40.8761 38.7551 41.7833 38.7551 42.7033Z" fill="#FF6F00"/>
<path d="M36.1355 42.7033V42.8311C36.1355 43.2656 36.0972 43.815 36.0589 44.4028C36.0205 44.8372 35.9822 45.2844 35.9439 45.7061C35.535 45.7956 35.1133 45.8722 34.6916 45.9106H34.6789C34.1933 45.9744 33.7205 46 33.2222 46H30.9861L30.5005 45.8594L27.9833 45.0928L25.4278 44.3261L19.5116 42.55L16.9561 41.7833C16.9561 41.7833 15.8955 42.205 14.4005 42.7033H14.3878C13.8128 42.895 13.1866 43.0994 12.5222 43.3039C11.6916 43.5467 10.81 43.7894 9.94109 43.9811C9.04665 44.1856 8.16498 44.3389 7.37276 44.4028C7.12998 44.4283 6.8872 44.4411 6.66998 44.4411C5.95443 44.045 5.26443 43.5722 4.63832 43.0483C4.08887 42.5883 3.57776 42.09 3.10498 41.5406C2.74721 41.1317 2.42776 40.71 2.12109 40.25C2.21054 39.675 2.31276 39.1128 2.46609 38.5633C2.84943 37.0428 3.44998 35.5861 4.2422 34.2572C4.67665 33.5033 5.1622 32.775 5.72443 32.0978C5.7372 32.0594 5.77554 32.0211 5.81387 31.9956C5.80109 31.9828 5.81387 31.9828 5.81387 31.9828C5.97998 31.7656 6.15887 31.5611 6.33776 31.3694C6.33776 31.3567 6.33776 31.3567 6.33776 31.3567C6.86165 30.7944 7.39832 30.2578 7.98609 29.7594C8.19054 29.5933 8.3822 29.4272 8.59943 29.2611C8.63776 29.2228 8.67609 29.1972 8.7272 29.1589C11.6022 26.9611 15.1928 25.6322 19.0644 25.6322C23.46 25.6322 27.4594 27.2806 30.4878 29.9894C31.9444 31.3056 33.1839 32.8772 34.1166 34.6278C34.1933 34.7556 34.27 34.8961 34.3339 35.0367C34.4489 35.2667 34.5639 35.5095 34.6661 35.765C35.0878 36.685 35.42 37.6561 35.65 38.6528C35.6755 38.755 35.7011 38.8572 35.7266 38.9595C35.8289 39.4322 35.9183 39.9178 35.9822 40.4033C36.0844 41.1572 36.1355 41.9239 36.1355 42.7033Z" fill="#FF9800"/>
<path d="M33.5031 42.7033C33.5031 42.9589 33.4903 43.24 33.4775 43.5339C33.452 44.0067 33.4137 44.5178 33.3498 45.0417C33.3242 45.3611 33.2731 45.6806 33.222 46H26.2198L24.8653 45.7828L19.5753 44.9394L18.8214 44.8245L17.0964 44.5433C16.3425 44.5433 14.707 44.8756 12.982 45.195C12.0748 45.3611 11.1548 45.54 10.3242 45.655C10.222 45.6678 10.1198 45.6806 10.0303 45.6933H10.0175C9.1231 45.5017 8.25421 45.2078 7.43644 44.8245C7.18088 44.7095 6.92533 44.5817 6.66977 44.4411C5.95422 44.045 5.26422 43.5722 4.6381 43.0483C4.62533 42.895 4.61255 42.7672 4.61255 42.7033C4.61255 42.3711 4.62533 42.0517 4.65088 41.7322C4.70199 40.9144 4.81699 40.1222 4.99588 39.3556C5.27699 38.1928 5.68588 37.0683 6.23533 36.0333C6.33755 35.8161 6.45255 35.5989 6.58033 35.3944C6.63144 35.2922 6.69533 35.2028 6.74644 35.1006C6.97644 34.73 7.23199 34.3722 7.48755 34.0144C8.02421 33.3117 8.62477 32.6472 9.26366 32.0467C9.27644 32.0467 9.27644 32.0467 9.27644 32.0467C9.32755 31.9956 9.37866 31.9444 9.42977 31.9061C9.49366 31.855 9.54477 31.7911 9.60866 31.7528C9.86422 31.5228 10.1198 31.3183 10.3881 31.1267C10.3881 31.1139 10.4009 31.1139 10.4009 31.1139C12.8159 29.3122 15.8059 28.2517 19.0642 28.2517C21.5942 28.2517 23.9453 28.8906 26.0025 30.015H26.0153C27.7787 30.9861 29.312 32.3022 30.5259 33.8867C30.9987 34.5 31.4203 35.1517 31.7781 35.8417H31.7909C31.8548 35.9694 31.9187 36.0972 31.9825 36.225C32.3659 36.9789 32.6725 37.7711 32.9025 38.5889H32.9153C32.9281 38.6528 32.9537 38.7167 32.9664 38.7806C33.1198 39.33 33.2475 39.8922 33.337 40.4672C33.3498 40.5822 33.3625 40.71 33.3753 40.825C33.4648 41.4383 33.5031 42.0644 33.5031 42.7033Z" fill="#FFC107"/>
<path d="M30.884 42.5628C30.884 42.7672 30.884 42.9844 30.8584 43.1889V43.2017C30.8584 43.2144 30.8584 43.2144 30.8584 43.2144C30.8329 44.1344 30.7051 45.0417 30.5007 45.8594C30.5007 45.9106 30.4879 45.9489 30.4623 46H24.4951L19.5757 44.9394L18.924 44.7989L18.8218 44.8244L13.3657 45.9489L13.1229 46H12.7779C11.9601 46 11.1551 45.9233 10.3757 45.77C10.2607 45.7444 10.1457 45.7189 10.0307 45.6933H10.0179C9.12345 45.5017 8.25456 45.2078 7.43678 44.8244C7.41123 44.6839 7.38567 44.5433 7.3729 44.4028C7.28345 43.8533 7.24512 43.2783 7.24512 42.7033C7.24512 42.4861 7.24512 42.2689 7.2579 42.0517C7.29623 41.3617 7.39845 40.6844 7.55178 40.0328C7.65401 39.5472 7.79456 39.0744 7.96067 38.6272C8.10123 38.2311 8.26734 37.8478 8.44623 37.4772C8.59956 37.1578 8.77845 36.8511 8.95734 36.5444C9.13623 36.2506 9.32789 35.9694 9.53234 35.6883C10.0434 34.9856 10.644 34.3339 11.3085 33.7589C11.6918 33.4267 12.1134 33.1072 12.5479 32.8261C14.4134 31.5994 16.6496 30.8839 19.0646 30.8839C19.5373 30.8839 19.9973 30.9094 20.4446 30.9733H20.4701C21.8373 31.1267 23.1151 31.51 24.2907 32.085C24.3034 32.085 24.3034 32.085 24.3034 32.085C26.1562 32.9922 27.7279 34.3594 28.8779 36.0461C29.0696 36.3272 29.2612 36.6339 29.4273 36.9406C29.5679 37.1833 29.6957 37.4389 29.8107 37.6944C29.9896 38.0906 30.1557 38.5122 30.2962 38.9339H30.309C30.4496 39.4067 30.5773 39.8794 30.6668 40.3778V40.3906C30.8073 41.0933 30.884 41.8217 30.884 42.5628Z" fill="#FFD54F"/>
<path d="M28.2517 42.8311V42.8695C28.2517 43.6233 28.1623 44.3645 27.9834 45.0928C27.9195 45.3995 27.8301 45.7061 27.7151 46H21.9906L19.0645 45.195L16.1384 46H12.7778C11.9601 46 11.1551 45.9233 10.3756 45.77C10.3501 45.7317 10.3373 45.6933 10.3245 45.655C10.1456 45.1056 10.0051 44.5561 9.94117 43.9811C9.89006 43.6106 9.8645 43.2272 9.8645 42.8311C9.8645 42.6778 9.8645 42.5117 9.89006 42.3583C9.90283 41.7578 9.99228 41.17 10.1456 40.6078C10.2223 40.2245 10.3373 39.8539 10.4906 39.4961C10.5417 39.3172 10.6184 39.1511 10.7078 38.985C10.8995 38.5506 11.1295 38.1289 11.3851 37.72C11.6662 37.3111 11.9728 36.9278 12.3178 36.57C12.7267 36.11 13.1867 35.6883 13.7106 35.3433C14.6051 34.6917 15.6273 34.2061 16.7389 33.9378C17.4801 33.7333 18.2595 33.6311 19.0645 33.6311C21.6201 33.6311 23.9073 34.6533 25.5684 36.3017C25.6323 36.3656 25.7089 36.4422 25.7728 36.5317H25.7856C25.9645 36.7233 26.1306 36.915 26.2967 37.1322C26.7695 37.7328 27.1656 38.3845 27.4723 39.1C27.6256 39.4322 27.7534 39.7772 27.8556 40.135C27.8684 40.1861 27.8812 40.2245 27.8939 40.2756C28.0728 40.9017 28.1878 41.5533 28.2134 42.2306C28.2389 42.4222 28.2517 42.6267 28.2517 42.8311Z" fill="#FFE082"/>
<path d="M25.6324 42.8311C25.6324 43.355 25.5685 43.8533 25.4279 44.3261C25.3002 44.8372 25.1085 45.3228 24.8657 45.7828C24.8274 45.8594 24.7379 46 24.7379 46H13.3913C13.3785 45.9872 13.3657 45.9617 13.3657 45.9489C13.2124 45.7061 13.0846 45.4633 12.9824 45.195C12.7268 44.6072 12.5735 43.9683 12.5224 43.3039C12.4968 43.1506 12.4968 42.9844 12.4968 42.8311C12.4968 42.7544 12.4968 42.665 12.5096 42.5883C12.5224 42.0261 12.599 41.4894 12.7524 40.9911C12.8802 40.5311 13.0463 40.1094 13.2635 39.7006C13.2635 39.7006 13.2763 39.6878 13.2763 39.675C13.4296 39.4067 13.5957 39.1383 13.7874 38.8828C14.4135 38.0394 15.244 37.3494 16.2024 36.9022C16.2152 36.9022 16.2152 36.9022 16.2152 36.9022C16.5218 36.7489 16.8413 36.6211 17.1735 36.5317C17.1735 36.5317 17.1735 36.5317 17.1863 36.5317C17.774 36.3528 18.4129 36.2633 19.0646 36.2633C19.8185 36.2633 20.5468 36.3783 21.2113 36.6211C21.454 36.685 21.684 36.7872 21.914 36.9022C21.914 36.9022 21.914 36.9022 21.9268 36.9022C23.0257 37.4261 23.9585 38.2439 24.5974 39.2661C24.7252 39.4578 24.8402 39.6622 24.9424 39.8794C24.9935 39.9689 25.0446 40.0711 25.0829 40.1606C25.3768 40.825 25.5557 41.5533 25.6068 42.32C25.6196 42.3839 25.6196 42.4478 25.6196 42.5244C25.6324 42.6267 25.6324 42.7289 25.6324 42.8311Z" fill="#FFECB3"/>
<path d="M30.6667 6.38889H15.3334C10.35 6.38889 6.38892 10.35 6.38892 15.3333V30.6667C6.38892 35.65 10.35 39.6111 15.3334 39.6111H30.6667C35.65 39.6111 39.6111 35.65 39.6111 30.6667V15.3333C39.6111 10.35 35.65 6.38889 30.6667 6.38889Z" stroke="white" stroke-width="2" stroke-miterlimit="10" stroke-linecap="round" stroke-linejoin="round"/>
<path d="M31.9445 14.0556C32.6502 14.0556 33.2223 13.4835 33.2223 12.7778C33.2223 12.0721 32.6502 11.5 31.9445 11.5C31.2388 11.5 30.6667 12.0721 30.6667 12.7778C30.6667 13.4835 31.2388 14.0556 31.9445 14.0556Z" fill="white"/>
<path d="M22.9999 30.6667C27.2341 30.6667 30.6666 27.2342 30.6666 23C30.6666 18.7658 27.2341 15.3333 22.9999 15.3333C18.7657 15.3333 15.3333 18.7658 15.3333 23C15.3333 27.2342 18.7657 30.6667 22.9999 30.6667Z" stroke="white" stroke-width="2" stroke-miterlimit="10" stroke-linecap="round" stroke-linejoin="round"/>
</svg>
