<svg width="68" height="70" viewBox="0 0 68 70" fill="none" xmlns="http://www.w3.org/2000/svg">
<path d="M29.1262 0.261833C26.2707 1.02759 23.8535 3.07871 22.5785 5.79987C21.5292 8.02875 21.5159 8.17917 21.5159 15.6316V15.8185C21.5159 19.31 18.6855 22.1405 15.194 22.1405V22.1405C7.95559 22.1405 7.80949 22.1541 5.63133 23.2344C2.92192 24.5881 0.903139 27.1862 0.199222 30.2356C0.0531258 30.8919 0 32.0406 0 35.0079C0 38.4401 0.0265629 39.0417 0.265629 39.9579C0.996109 42.9389 2.97504 45.4276 5.64462 46.7539C7.80949 47.8342 7.95559 47.8479 15.194 47.8479V47.8479C18.6855 47.8479 21.5159 50.6783 21.5159 54.1698V54.3568C21.5159 61.8092 21.5292 61.9596 22.5785 64.1885C23.8668 66.937 26.284 68.9744 29.1793 69.7265C30.0692 69.9727 30.6536 70 34.0005 70C37.3474 70 37.9318 69.9727 38.8217 69.7265C41.717 68.9744 44.1343 66.937 45.4226 64.1885C46.4054 62.0963 46.4851 61.5357 46.4851 56.7497V53.2051C46.4851 52.8874 46.7386 52.6278 47.0562 52.6202V52.6202C48.6499 52.5791 49.2742 52.7842 50.7351 53.7825C51.7976 54.5072 52.9399 54.8354 54.4539 54.849C55.9282 54.8627 56.8712 54.5756 57.8938 53.8098C59.5275 52.5655 60.3509 50.1451 60.0321 47.4787C59.7798 45.4139 59.1157 44.0054 57.5087 42.1594C57.0571 41.6398 56.2337 40.5049 55.6891 39.6434C55.1313 38.7819 54.4672 37.7427 54.2016 37.3325C53.1524 35.7052 51.7578 34.584 50.1375 34.0917C48.9023 33.7088 46.1929 33.7362 44.9444 34.1327C42.9788 34.7754 41.8233 35.8967 39.9506 38.987C39.3928 39.9032 38.3834 41.3116 37.7193 42.1047C35.7404 44.4704 34.9169 46.6719 35.1161 49.0922C35.3818 52.3603 37.0021 54.3841 39.7248 54.8354C40.774 55.0131 42.4608 54.7943 43.3772 54.3568V54.3568C43.71 54.1982 44.0944 54.4408 44.0944 54.8094V57.2557C44.0944 59.6623 44.0413 60.7289 43.8952 61.3716C43.2444 64.1748 40.9201 66.5815 38.1576 67.3199C36.9888 67.6344 31.0122 67.6344 29.8434 67.3199C27.227 66.6225 25.0222 64.4483 24.159 61.7271C24.0261 61.3169 23.973 59.3615 23.9066 54.138L23.8458 47.6868C23.8421 47.2999 23.7347 46.9211 23.5347 46.5899V46.5899C23.3621 46.3164 23.0035 45.9472 22.7378 45.7694V45.7694C22.4167 45.5639 22.0443 45.4529 21.663 45.4491L15.4065 45.3865C10.333 45.3182 8.43372 45.2635 8.03528 45.1267C5.40555 44.2516 3.28052 41.9543 2.60316 39.2742C2.31097 38.1119 2.29769 31.8628 2.58988 30.7142C3.26724 28.0477 5.40555 25.7368 8.03528 24.8616C8.43372 24.7249 10.333 24.6702 15.4065 24.6018L21.663 24.5393C22.0443 24.5355 22.4167 24.4245 22.7378 24.2189V24.2189C23.0035 24.0412 23.3621 23.672 23.5347 23.3985V23.3985C23.7347 23.0673 23.8421 22.6885 23.8458 22.3016L23.9066 15.8504C23.973 10.6268 24.0261 8.67144 24.159 8.26121C24.7965 6.23744 26.4965 4.14529 28.1965 3.29749C29.7637 2.51807 30.2419 2.4497 34.0005 2.4497C37.7592 2.4497 38.2373 2.51807 39.8045 3.29749C41.0264 3.91283 42.5405 5.45801 43.2046 6.77073C44.0413 8.4253 44.0944 8.9039 44.0944 14.3325V18.5304C44.0944 18.7717 43.8079 18.8982 43.6296 18.7356V18.7356C42.1952 17.4502 39.9639 17.1357 38.2904 17.9835C36.9357 18.6536 36.0459 19.7885 35.4482 21.5525C34.12 25.559 35.7802 30.5091 39.0076 32.15C39.8311 32.5602 40.0037 32.6012 41.1725 32.6012C42.328 32.6012 42.5006 32.5602 43.2311 32.1636C43.6694 31.9312 44.2936 31.4799 44.6124 31.1517C45.2632 30.468 46.1132 28.7588 46.339 27.6375C46.4319 27.1452 46.4851 23.9865 46.4851 18.0246C46.4851 7.90568 46.4984 8.09713 45.4226 5.78619C44.1077 2.99667 41.5842 0.918196 38.6225 0.193466C37.9849 0.0430505 36.8826 -0.0116524 33.9341 0.00202179C30.5872 0.00202179 29.9497 0.0430468 29.1262 0.261833ZM41.385 20.2261C42.5272 20.8004 43.6296 22.4823 43.9749 24.1779C44.453 26.5299 43.5897 29.2921 42.1819 29.9484C40.9467 30.5227 39.7912 30.1262 38.7685 28.7451C37.3474 26.8444 36.9888 24.1506 37.8654 22.0448C38.2506 21.1012 38.6889 20.5816 39.3397 20.2398C40.0569 19.8842 40.6678 19.8706 41.385 20.2261ZM49.6726 36.553C50.7883 36.9769 51.4391 37.6059 52.5414 39.3289C53.0992 40.2177 53.7633 41.2706 54.0289 41.6535C54.2813 42.05 54.9321 42.9115 55.4899 43.5679C57.3094 45.7557 57.6946 46.7266 57.6149 48.8187C57.5618 50.3776 57.2165 51.2117 56.3797 51.8271C55.0649 52.7979 53.3914 52.5928 51.2664 51.1844C49.075 49.7486 46.1265 49.7896 43.8288 51.2664C42.6467 52.0185 42.1553 52.2373 41.3186 52.3603C39.2732 52.6475 37.9185 51.5946 37.5865 49.4478C37.281 47.424 37.8521 45.8241 39.685 43.6089C40.349 42.8295 41.3717 41.3663 41.9827 40.3681C43.7225 37.5239 44.3468 36.8949 45.9538 36.43C46.857 36.1702 48.8093 36.2385 49.6726 36.553Z" fill="black"/>
<path d="M53.4577 17.669C52.5679 17.9835 52.0366 18.3117 51.2264 19.1048C49.8717 20.4449 49.0084 22.3183 48.7428 24.5471C48.3975 27.3367 49.4202 30.345 51.1467 31.6577C52.1694 32.4234 53.1257 32.7106 54.3741 32.6286C55.782 32.5328 56.8179 32.0132 57.8672 30.8509C59.368 29.1964 60.1648 27.0358 60.1648 24.5882C60.1648 22.9062 59.9922 22.0858 59.3812 20.7047C58.4648 18.6673 57.0171 17.6143 55.0515 17.5323C54.414 17.505 53.7765 17.5597 53.4577 17.669ZM56.1007 20.3765C57.057 21.0329 57.6414 22.3456 57.7343 24.0549C57.7742 24.7249 57.7343 25.559 57.6547 26.0103C57.3226 27.6375 56.0476 29.5792 55.0249 30.0168C54.0687 30.4407 52.8601 30.1125 52.1561 29.2647C51.3858 28.3075 50.9342 26.3111 51.16 24.7249C51.4389 22.6464 52.3819 21.0602 53.8429 20.1851C54.414 19.8569 55.4765 19.939 56.1007 20.3765Z" fill="black"/>
<path d="M8.8985 26.8855C8.10161 27.0496 6.87972 27.7606 6.1758 28.4854C5.16641 29.5246 4.62187 30.7279 4.54218 32.109C4.47577 33.367 4.675 33.7362 5.52501 33.8593C6.33518 33.9687 6.7469 33.5448 6.893 32.4509C7.15863 30.5912 8.19458 29.5109 10.0009 29.2511C10.9173 29.1144 11.2626 28.8409 11.3688 28.1435C11.4353 27.7606 11.3821 27.5829 11.0899 27.2273C10.7579 26.8308 10.6782 26.7898 9.98758 26.8034C9.56257 26.8171 9.08444 26.8581 8.8985 26.8855Z" fill="black"/>
<path d="M13.8789 27.1318C13.4007 27.6104 13.4273 28.335 13.932 28.8545C14.2906 29.21 14.4101 29.251 15.207 29.251C16.1234 29.251 16.7742 29.0186 16.9203 28.6357C16.9602 28.5127 17 28.1709 17 27.8838C17 27.0635 16.575 26.79 15.2468 26.79C14.3171 26.79 14.1578 26.8311 13.8789 27.1318Z" fill="black"/>
<path d="M30.0159 29.6476C29.3519 29.8664 28.8604 30.1946 28.3292 30.7963C26.3635 32.9978 26.9878 37.4419 29.5776 39.5887C30.5738 40.4229 31.5699 40.7921 32.8714 40.7921C33.8011 40.8057 34.0136 40.7511 34.6379 40.4092C35.8996 39.6845 36.6301 38.3991 36.7496 36.7035C36.8957 34.6934 36.2715 32.8611 34.9035 31.3706C33.8144 30.1673 32.7652 29.634 31.3706 29.5793C30.8128 29.5519 30.2019 29.5793 30.0159 29.6476ZM32.2472 32.3414C33.0574 32.7517 33.5222 33.285 33.9738 34.2969C34.9301 36.43 34.1465 38.6042 32.5128 38.3717C30.0956 38.0436 28.5815 33.7225 30.3613 32.2731C30.8394 31.8902 31.4105 31.9175 32.2472 32.3414Z" fill="black"/>
<path d="M62.6751 29.7296C60.6829 30.4817 59.2751 32.0952 58.6375 34.3651C58.4649 34.9531 58.425 35.5137 58.4649 36.4846C58.518 37.6196 58.5711 37.9067 58.9297 38.6178C59.8727 40.4911 61.5462 41.2295 63.565 40.6689C65.6236 40.0946 67.1111 38.4674 67.8017 36.0334C68.1471 34.8027 68.0275 32.8473 67.5494 31.8217C67.1244 30.8919 66.2345 30.0441 65.3845 29.7433C64.6408 29.4834 63.3392 29.4698 62.6751 29.7296ZM64.9329 32.3277C65.9822 33.2438 65.8095 35.4864 64.5743 37.1546C64.1493 37.729 63.0204 38.4127 62.4892 38.4127C61.5196 38.4127 60.829 37.4965 60.829 36.1701C60.829 34.6249 61.7188 33.025 62.9407 32.3687C63.8306 31.8901 64.4017 31.8764 64.9329 32.3277Z" fill="black"/>
</svg>
