<svg width="68" height="70" viewBox="0 0 68 70" fill="none" xmlns="http://www.w3.org/2000/svg">
<path d="M32.2714 0.157522C30.9438 0.581971 30.2523 1.08857 27.6386 3.55312C26.0206 5.08661 24.8036 6.1272 24.5271 6.22304C24.1399 6.35996 23.5037 6.30519 20.6964 5.90813C16.8934 5.38783 16.4094 5.36045 15.2616 5.64798C13.5744 6.08612 12.15 7.19517 11.3756 8.6739C10.8363 9.67341 10.7533 10.0431 10.1448 13.5208C9.86822 15.068 9.57781 16.5331 9.50867 16.7795C9.31506 17.382 8.91402 17.6421 5.92693 19.2167C2.82921 20.8323 1.90266 21.4348 1.3495 22.1878C0.298488 23.6118 -0.102556 24.9125 0.0219059 26.5145C0.11871 27.7467 0.339975 28.2944 2.1101 31.8954C2.89836 33.511 3.43769 34.7707 3.43769 35.0171C3.43769 35.2636 2.89836 36.5233 2.1101 38.1389C0.339975 41.7399 0.11871 42.2876 0.0219059 43.5198C-0.102556 45.1218 0.298488 46.4225 1.3495 47.8465C1.90266 48.5995 2.82921 49.202 5.92693 50.8176C8.91402 52.3922 9.31506 52.6523 9.50867 53.2548C9.59164 53.5012 9.89588 55.0895 10.2001 56.7873C10.8086 60.1966 10.9469 60.6895 11.6107 61.7985C12.634 63.4826 14.7361 64.6054 16.8243 64.5917C17.1838 64.578 18.9678 64.3726 20.7932 64.1262C23.4761 63.7565 24.1813 63.7017 24.5409 63.8249C24.8036 63.9071 26.1036 65.0298 27.6663 66.4949C29.9619 68.6719 30.4736 69.0826 31.3725 69.5071C32.382 69.9863 32.465 70 34 70C35.535 70 35.618 69.9863 36.6275 69.5071C37.5264 69.0826 38.0381 68.6719 40.3337 66.4949C42.2836 64.6602 43.141 63.9345 43.5144 63.8249C43.9293 63.7017 44.6346 63.7702 47.2759 64.1262C50.996 64.6465 51.6044 64.6738 52.7384 64.3863C54.4256 63.9482 55.85 62.8391 56.6244 61.3604C57.1637 60.3609 57.2467 59.9912 57.8552 56.5135C58.1318 54.9663 58.4222 53.5012 58.4913 53.2548C58.6849 52.6523 59.086 52.3922 62.0731 50.8176C65.1708 49.202 66.0973 48.5995 66.6505 47.8465C67.7015 46.4225 68.1026 45.1218 67.9781 43.5198C67.8813 42.2876 67.66 41.7399 65.8899 38.1389C65.1016 36.5233 64.5623 35.2636 64.5623 35.0171C64.5623 34.7707 65.1016 33.511 65.8899 31.8954C67.66 28.2944 67.8813 27.7467 67.9781 26.5145C68.1026 24.9125 67.7015 23.6118 66.6505 22.1878C66.0973 21.4348 65.1708 20.8323 62.0731 19.2167C59.086 17.6421 58.6849 17.382 58.4913 16.7795C58.4222 16.5331 58.1318 15.068 57.8552 13.5208C57.2467 10.0431 57.1637 9.67341 56.6244 8.6739C55.85 7.19517 54.4256 6.08612 52.7384 5.64798C51.5906 5.36045 51.1066 5.38783 47.3036 5.90813C44.4963 6.30519 43.8601 6.35996 43.4729 6.22304C43.1963 6.1272 41.9794 5.08661 40.3337 3.53943C38.0243 1.36241 37.5264 0.951653 36.6275 0.527203C35.6871 0.0753701 35.4659 0.0342943 34.2074 0.00691046C33.3362 -0.0204734 32.6171 0.0342943 32.2714 0.157522ZM34.7329 4.2651C34.9819 4.37463 36.3371 5.55214 37.7477 6.89395C40.3752 9.41326 41.1496 9.96094 42.4911 10.3169C43.5282 10.5908 44.5101 10.5497 48.0365 10.0431C50.1247 9.74186 51.3555 9.63233 51.6183 9.70079C52.1438 9.8514 52.614 10.1663 52.8767 10.5497C52.9873 10.714 53.3331 12.2749 53.6373 14.0001C54.4671 18.6553 54.6468 19.1208 56.0159 20.4626C56.5829 21.0103 57.4403 21.5306 59.7913 22.7629C61.4646 23.6529 62.9996 24.5428 63.207 24.7482C63.6081 25.1727 63.8985 25.9942 63.7879 26.3639C63.7464 26.4871 62.9996 28.0753 62.1284 29.8827C60.3721 33.5384 60.1785 34.223 60.4274 35.9345C60.5242 36.6876 60.8561 37.5091 62.1284 40.1516C62.9996 41.959 63.7464 43.5472 63.7879 43.6704C63.8985 44.0401 63.6081 44.8616 63.207 45.2861C62.9996 45.4915 61.4646 46.3814 59.7913 47.2714C57.4403 48.5037 56.5829 49.024 56.0159 49.5717C54.6468 50.9135 54.4671 51.379 53.6373 56.0342C53.3331 57.7594 52.9873 59.3203 52.8767 59.4846C52.614 59.868 52.1438 60.1829 51.6183 60.3335C51.3555 60.402 50.1247 60.2924 48.0365 59.9912C44.5101 59.4846 43.5282 59.4435 42.4911 59.7174C41.1496 60.0734 40.3752 60.621 37.6785 63.1951C34.8021 65.9198 34.4564 66.1389 33.4883 65.8513C33.1011 65.7418 32.2575 65.0298 30.3215 63.1951C27.5833 60.5937 26.9057 60.1007 25.4951 59.7311C24.3473 59.4435 23.5729 59.4709 19.9635 59.9912C17.8753 60.2924 16.6445 60.402 16.3817 60.3335C15.8562 60.1829 15.386 59.868 15.1233 59.4846C15.0126 59.3203 14.6669 57.7594 14.3627 56.0342C13.5329 51.379 13.3532 50.9135 11.9841 49.5717C11.4171 49.024 10.5597 48.5037 8.20873 47.2714C6.53541 46.3814 5.00038 45.4915 4.79294 45.2861C4.3919 44.8616 4.10149 44.0401 4.21212 43.6704C4.25361 43.5472 5.00038 41.959 5.87161 40.1516C7.62791 36.4959 7.82152 35.8113 7.57259 34.0998C7.47579 33.3467 7.14389 32.5252 5.87161 29.8827C5.00038 28.0753 4.25361 26.4871 4.21212 26.3639C4.10149 25.9942 4.3919 25.1727 4.79294 24.7482C5.00038 24.5428 6.53541 23.6529 8.20873 22.7629C10.5597 21.5306 11.4171 21.0103 11.9841 20.4626C13.3532 19.1208 13.5329 18.6553 14.3627 14.0001C14.6669 12.2749 15.0126 10.714 15.1233 10.5497C15.386 10.1663 15.8562 9.8514 16.3817 9.70079C16.6445 9.63233 17.8753 9.74186 19.9635 10.0431C23.4899 10.5497 24.4717 10.5908 25.5089 10.3169C26.8504 9.96094 27.6248 9.41326 30.2523 6.89395C33.2947 4.00495 33.6404 3.79957 34.7329 4.2651Z" fill="black"/>
<path d="M23.9047 16.9986C21.8442 17.5873 20.0326 19.025 19.1337 20.7775C17.972 23.0504 18.0412 25.8709 19.3135 28.0343C19.8251 28.8969 21.3463 30.3482 22.2037 30.8137C23.1165 31.2929 24.8313 31.7311 25.8408 31.7311C26.9056 31.7311 28.6066 31.2792 29.547 30.7453C31.2065 29.8005 32.5479 28.089 33.1011 26.1859C33.4468 25.0494 33.4053 23.1599 33.0458 21.9961C32.3681 19.8602 30.5289 17.9707 28.3715 17.1903C27.3758 16.8206 24.8728 16.7247 23.9047 16.9986ZM26.7535 21.1198C28.2194 21.5443 29.2566 22.9819 29.1321 24.3922C28.8832 27.2401 25.5227 28.5135 23.5175 26.5281C22.8952 25.912 22.6463 25.378 22.5633 24.4881C22.425 23.023 23.3239 21.6675 24.7621 21.1746C25.661 20.8734 25.8823 20.8597 26.7535 21.1198Z" fill="black"/>
<path d="M46.7919 19.6959C46.5153 19.7781 41.9656 24.1868 32.5203 33.5384C20.9315 45.0123 18.622 47.3536 18.4976 47.7917C18.0827 49.3115 19.3826 50.6807 20.973 50.4069C21.4293 50.3384 23.0059 48.8186 35.4244 36.537C50.3736 21.7497 49.7652 22.4069 49.5439 21.2431C49.4194 20.5859 48.7556 19.8602 48.1333 19.6822C47.5387 19.5179 47.3589 19.5316 46.7919 19.6959Z" fill="black"/>
<path d="M40.2507 38.577C37.6785 39.2479 35.6594 41.2332 34.8988 43.8484C34.5669 44.9711 34.5946 46.8743 34.9541 48.0381C35.6456 50.2015 37.6093 52.2005 39.7528 52.8988C40.9007 53.2684 43.4176 53.2684 44.5654 52.8988C46.211 52.3511 47.9812 50.8997 48.7832 49.4073C49.4332 48.1751 49.6821 47.1619 49.6683 45.6968C49.6545 43.5472 49.0045 42.0548 47.4142 40.4939C46.3217 39.4259 45.4504 38.933 44.0122 38.577C42.6846 38.2347 41.5645 38.2347 40.2507 38.577ZM43.4729 42.8078C45.1462 43.5472 45.9068 45.423 45.2015 47.0386C44.5654 48.49 43.0027 49.3252 41.5091 48.9829C39.9326 48.6406 38.771 47.1892 38.8678 45.6968C39.0061 43.8758 40.389 42.5477 42.1591 42.5477C42.6016 42.5477 43.1548 42.6572 43.4729 42.8078Z" fill="black"/>
</svg>
